<svg id="Layer_1" data-name="Layer 1" xmlns="http://www.w3.org/2000/svg" viewBox="0 0 1366 229"><defs><style>.cls-1{fill:#E3352E;}.cls-10,.cls-100,.cls-101,.cls-102,.cls-11,.cls-12,.cls-13,.cls-14,.cls-15,.cls-16,.cls-17,.cls-18,.cls-19,.cls-2,.cls-20,.cls-21,.cls-22,.cls-23,.cls-24,.cls-25,.cls-26,.cls-27,.cls-28,.cls-29,.cls-3,.cls-30,.cls-31,.cls-32,.cls-33,.cls-34,.cls-35,.cls-36,.cls-37,.cls-38,.cls-39,.cls-4,.cls-40,.cls-41,.cls-42,.cls-43,.cls-44,.cls-45,.cls-46,.cls-47,.cls-48,.cls-49,.cls-5,.cls-50,.cls-51,.cls-52,.cls-53,.cls-54,.cls-55,.cls-56,.cls-57,.cls-58,.cls-59,.cls-6,.cls-60,.cls-61,.cls-62,.cls-63,.cls-64,.cls-65,.cls-66,.cls-67,.cls-68,.cls-69,.cls-7,.cls-70,.cls-71,.cls-72,.cls-73,.cls-74,.cls-75,.cls-76,.cls-77,.cls-78,.cls-79,.cls-8,.cls-80,.cls-81,.cls-82,.cls-83,.cls-84,.cls-85,.cls-86,.cls-87,.cls-88,.cls-89,.cls-9,.cls-90,.cls-91,.cls-92,.cls-93,.cls-94,.cls-95,.cls-96,.cls-97,.cls-98,.cls-99{fill:none;stroke:#E3352E;stroke-miterlimit:10;}.cls-2{stroke-width:0.01px;}.cls-3{stroke-width:0.02px;}.cls-4{stroke-width:0.03px;}.cls-5{stroke-width:0.04px;}.cls-6{stroke-width:0.05px;}.cls-7{stroke-width:0.06px;}.cls-8{stroke-width:0.07px;}.cls-9{stroke-width:0.08px;}.cls-10{stroke-width:0.09px;}.cls-11{stroke-width:0.1px;}.cls-12{stroke-width:0.11px;}.cls-13{stroke-width:0.12px;}.cls-14{stroke-width:0.13px;}.cls-15{stroke-width:0.14px;}.cls-16{stroke-width:0.15px;}.cls-17{stroke-width:0.16px;}.cls-18{stroke-width:0.17px;}.cls-19{stroke-width:0.18px;}.cls-20{stroke-width:0.19px;}.cls-21{stroke-width:0.2px;}.cls-22{stroke-width:0.21px;}.cls-23{stroke-width:0.22px;}.cls-24{stroke-width:0.23px;}.cls-25{stroke-width:0.24px;}.cls-26{stroke-width:0.25px;}.cls-27{stroke-width:0.26px;}.cls-28{stroke-width:0.27px;}.cls-29{stroke-width:0.28px;}.cls-30{stroke-width:0.29px;}.cls-31{stroke-width:0.3px;}.cls-32{stroke-width:0.31px;}.cls-33{stroke-width:0.32px;}.cls-34{stroke-width:0.33px;}.cls-35{stroke-width:0.34px;}.cls-36{stroke-width:0.35px;}.cls-37{stroke-width:0.36px;}.cls-38{stroke-width:0.37px;}.cls-39{stroke-width:0.38px;}.cls-40{stroke-width:0.39px;}.cls-41{stroke-width:0.4px;}.cls-42{stroke-width:0.41px;}.cls-43{stroke-width:0.42px;}.cls-44{stroke-width:0.43px;}.cls-45{stroke-width:0.44px;}.cls-46{stroke-width:0.45px;}.cls-47{stroke-width:0.46px;}.cls-48{stroke-width:0.47px;}.cls-49{stroke-width:0.48px;}.cls-50{stroke-width:0.49px;}.cls-51{stroke-width:0.5px;}.cls-52{stroke-width:0.5px;}.cls-53{stroke-width:0.51px;}.cls-54{stroke-width:0.52px;}.cls-55{stroke-width:0.53px;}.cls-56{stroke-width:0.54px;}.cls-57{stroke-width:0.55px;}.cls-58{stroke-width:0.56px;}.cls-59{stroke-width:0.57px;}.cls-60{stroke-width:0.58px;}.cls-61{stroke-width:0.59px;}.cls-62{stroke-width:0.6px;}.cls-63{stroke-width:0.61px;}.cls-64{stroke-width:0.62px;}.cls-65{stroke-width:0.63px;}.cls-66{stroke-width:0.64px;}.cls-67{stroke-width:0.65px;}.cls-68{stroke-width:0.66px;}.cls-69{stroke-width:0.67px;}.cls-70{stroke-width:0.68px;}.cls-71{stroke-width:0.69px;}.cls-72{stroke-width:0.7px;}.cls-73{stroke-width:0.71px;}.cls-74{stroke-width:0.72px;}.cls-75{stroke-width:0.73px;}.cls-76{stroke-width:0.74px;}.cls-77{stroke-width:0.75px;}.cls-78{stroke-width:0.76px;}.cls-79{stroke-width:0.77px;}.cls-80{stroke-width:0.78px;}.cls-81{stroke-width:0.79px;}.cls-82{stroke-width:0.8px;}.cls-83{stroke-width:0.81px;}.cls-84{stroke-width:0.82px;}.cls-85{stroke-width:0.83px;}.cls-86{stroke-width:0.84px;}.cls-87{stroke-width:0.85px;}.cls-88{stroke-width:0.86px;}.cls-89{stroke-width:0.87px;}.cls-90{stroke-width:0.88px;}.cls-91{stroke-width:0.89px;}.cls-92{stroke-width:0.9px;}.cls-93{stroke-width:0.91px;}.cls-94{stroke-width:0.92px;}.cls-95{stroke-width:0.93px;}.cls-96{stroke-width:0.94px;}.cls-97{stroke-width:0.95px;}.cls-98{stroke-width:0.96px;}.cls-99{stroke-width:0.97px;}.cls-100{stroke-width:0.98px;}.cls-101{stroke-width:0.99px;}</style></defs><path class="cls-1" d="M1363,3V44.92H3V3H1363m3-3H0V47.92H1366V0Z"/><polygon class="cls-2" points="0 1.7 89.93 0.74 1366 0.74 1366 10.72 1364.08 29.62 1362.22 49.63 1039.76 49.1 829.13 49.63 641.15 49.25 231.89 49.45 0.34 49.2 0 1.7"/><path class="cls-1" d="M1363,3.71v6.86l-1.9,18.77-1.62,17.31-319.76-.52-210.62.53-188-.38-409.25.2L3.28,46.23,3,4.64l86.94-.93H1363m3-3H89.93L0,1.7.33,49.2l231.56.25,409.26-.2,188,.38,210.63-.53,322.46.53,1.86-20,1.92-18.9V.74Z"/><polygon class="cls-3" points="0 3.4 89.03 1.47 1366 1.47 1366 12.28 1362.17 30.93 1358.43 51.33 1036.95 50.27 827.02 51.33 639.64 50.58 231.55 50.98 0.67 50.48 0 3.4"/><path class="cls-1" d="M1363.06,4.41V12l-3.77,18.35v.07l-3.3,18-319-1.05L827,48.39l-187.4-.75L231.56,48l-228-.5L3,6.28,89,4.41h1274M1366,1.47H89L0,3.4.67,50.48l230.88.5,408.09-.4L827,51.33,1037,50.27l321.48,1.06,3.74-20.4L1366,12.28V1.47Z"/><polygon class="cls-4" points="0 5.1 88.13 2.21 1366 2.21 1366 13.84 1360.25 32.23 1354.65 53.03 1034.15 51.45 824.91 53.03 638.12 51.91 231.21 52.51 1 51.75 0 5.1"/><path class="cls-1" d="M1363.09,5.12v8.27l-5.62,18v.05l0,.06-5,18.63-318.29-1.57-209.2,1.58L638.12,49l-406.91.59L3.85,48.85,3,7.91l85.2-2.79H1363.09M1366,2.21H88.13L0,5.1,1,51.75l230.21.76,406.91-.6L824.91,53l209.24-1.58L1354.65,53l5.6-20.79,5.75-18.4V2.21Z"/><polygon class="cls-5" points="0 6.8 87.23 2.94 1366 2.94 1366 15.4 1358.34 33.54 1350.87 54.74 1031.35 52.63 822.81 54.74 636.6 53.24 230.86 54.03 1.34 53.03 0 6.8"/><path class="cls-1" d="M1363.12,5.83v9l-7.44,17.61,0,.08,0,.09-6.79,19.25-317.51-2.1L822.8,51.86l-186.2-1.5-405.73.79-226.73-1L3,9.55,87.29,5.83H1363.12M1366,2.94H87.23L0,6.8,1.34,53l229.52,1,405.74-.79,186.21,1.5,208.54-2.11,319.52,2.11,7.47-21.2L1366,15.4V2.94Z"/><polygon class="cls-6" points="0 8.5 86.33 3.68 1366 3.68 1366 16.96 1356.42 34.85 1347.09 56.44 1028.55 53.8 820.7 56.44 635.09 54.57 230.52 55.56 1.68 54.31 0 8.5"/><path class="cls-1" d="M1363.15,6.53v9.71l-9.24,17.27-.06.1,0,.11-8.58,19.85L1028.57,51h-.06L820.69,53.59,635.08,51.71l-404.55,1L4.42,51.47,3,11.19,86.41,6.53H1363.15M1366,3.68H86.33L0,8.5,1.67,54.31l228.85,1.25,404.57-1L820.7,56.44l207.85-2.64,318.53,2.64,9.34-21.59L1366,17V3.68Z"/><polygon class="cls-7" points="0 10.2 85.43 4.42 1366 4.42 1366 18.52 1354.51 36.16 1343.3 58.15 1025.74 54.98 818.59 58.15 633.57 55.9 230.17 57.09 2.01 55.59 0 10.2"/><path class="cls-1" d="M1363.18,7.24V17.68l-11,16.94-.08.13-.07.13-10.41,20.43-315.81-3.15h-.07L818.59,55.32l-185-2.25-403.37,1.2L4.71,52.78,2.94,12.83,85.52,7.24H1363.18M1366,4.42H85.43L0,10.2,2,55.59l228.16,1.5,403.4-1.19,185,2.25L1025.74,55l317.56,3.17,11.21-22L1366,18.52V4.42Z"/><polygon class="cls-8" points="0 11.9 84.53 5.15 1366 5.15 1366 20.08 1352.59 37.47 1339.52 59.85 1022.94 56.15 816.49 59.85 632.05 57.22 229.83 58.62 2.34 56.86 0 11.9"/><path class="cls-1" d="M1363.21,8V19.12l-12.83,16.64-.11.15-.09.15-12.25,21-315-3.68h-.08l-206.41,3.7L632,54.43,229.85,55.82,5,54.09,2.93,14.47,84.64,8H1363.21m2.79-2.8H84.53L0,11.9l2.34,45,227.49,1.76,402.22-1.4,184.44,2.63,206.45-3.7,316.58,3.7,13.07-22.38L1366,20.08V5.15Z"/><polygon class="cls-9" points="0 13.6 83.63 5.89 1366 5.89 1366 21.64 1350.67 38.78 1335.73 61.55 1020.14 57.33 814.38 61.55 630.54 58.55 229.49 60.14 2.68 58.14 0 13.6"/><path class="cls-1" d="M1363.24,8.65V20.58l-14.63,16.36-.13.15-.12.17-14.1,21.51-314.08-4.2h-.1l-205.7,4.22-183.8-3h-.05l-401,1.59L5.28,55.4,2.92,16.1,83.76,8.65H1363.24M1366,5.89H83.63L0,13.6,2.68,58.14l226.81,2,401-1.59,183.84,3,205.76-4.22,315.6,4.22,14.93-22.77L1366,21.64V5.89Z"/><polygon class="cls-10" points="0 15.3 82.73 6.63 1366 6.63 1366 23.2 1348.76 40.09 1331.95 63.26 1017.34 58.5 812.28 63.26 629.02 59.88 229.14 61.67 3.01 59.42 0 15.3"/><path class="cls-1" d="M1363.27,9.36V22.05l-16.42,16.09-.17.16-.13.18-16,22-313.19-4.73h-.11l-205,4.75-183.2-3.37H629L229.17,58.94,5.57,56.71l-2.66-39,80-8.38H1363.27M1366,6.63H82.73L0,15.3,3,59.42l226.13,2.25L629,59.88l183.26,3.38,205.06-4.76L1332,63.26l16.81-23.17L1366,23.2V6.63Z"/><polygon class="cls-11" points="0 17 81.83 7.36 1366 7.36 1366 24.75 1346.84 41.4 1328.17 64.96 1014.53 59.68 810.17 64.96 627.5 61.21 228.8 63.2 3.35 60.7 0 17"/><path class="cls-1" d="M1363.3,10.07V23.52l-18.23,15.83-.19.17-.16.2-17.84,22.51L1014.58,57h-.12l-204.3,5.28-182.6-3.75h-.07l-398.66,2L5.85,58l-3-38.64L82,10.07H1363.3m2.7-2.71H81.83L0,17,3.35,60.69,228.8,63.2l398.7-2L810.17,65l204.36-5.28L1328.17,65l18.67-23.56L1366,24.75V7.36Z"/><polygon class="cls-12" points="0 18.7 80.93 8.1 1366 8.1 1366 26.31 1344.93 42.7 1324.39 66.66 1011.73 60.85 808.06 66.66 625.99 62.54 228.45 64.73 3.68 61.97 0 18.7"/><path class="cls-1" d="M1363.33,10.77V25l-20,15.58-.21.17-.17.2-19.72,23-311.4-5.79h-.12L808.05,64l-182-4.12H626L228.49,62.05,6.14,59.33,2.88,21,81.11,10.77H1363.33M1366,8.1H80.93L0,18.7,3.68,62l224.77,2.76L626,62.54l182.07,4.12,203.67-5.8,312.66,5.8,20.54-24L1366,26.31V8.1Z"/><polygon class="cls-13" points="0 20.4 80.03 8.84 1366 8.84 1366 27.87 1343.01 44.01 1320.6 68.37 1008.93 62.03 805.96 68.37 624.47 63.87 228.11 66.25 4.02 63.25 0 20.4"/><path class="cls-1" d="M1363.36,11.48v15l-21.87,15.35-.23.16-.2.21L1319.47,65.7,1009,59.39h-.13L806,65.72l-181.41-4.5h-.09L228.12,63.61l-221.69-3-3.56-38L80.22,11.48H1363.36M1366,8.83H80L0,20.4,4,63.25l224.09,3,396.36-2.39L806,68.37l203-6.34,311.67,6.34L1343,44l23-16.14v-19Z"/><polygon class="cls-14" points="0 22.1 79.14 9.57 1366 9.57 1366 29.43 1341.09 45.32 1316.82 70.07 1006.13 63.21 803.85 70.07 622.95 65.2 227.77 67.78 4.35 64.53 0 22.1"/><path class="cls-1" d="M1363.39,12.19V28l-23.7,15.12-.25.16-.21.21-23.48,23.94-309.57-6.84H1006l-202.2,6.87L623,62.58h-.08L227.78,65.17,6.72,62,2.85,24.29l76.49-12.1H1363.39M1366,9.57H79.14L0,22.1,4.35,64.53l223.42,3.25L623,65.2l180.9,4.87,202.28-6.86,310.69,6.86,24.27-24.75L1366,29.43V9.57Z"/><polygon class="cls-15" points="0 23.8 78.24 10.31 1366 10.31 1366 30.99 1339.18 46.63 1313.04 71.78 1003.32 64.38 801.74 71.78 621.44 66.53 227.42 69.31 4.69 65.8 0 23.8"/><path class="cls-1" d="M1363.42,12.89V29.51L1337.88,44.4l-.27.15-.22.22L1312,69.17,1003.39,61.8h-.16L801.74,69.19,621.51,63.94h-.09l-394,2.79L7,63.26,2.84,25.93l75.62-13h1285m2.58-2.58H78.24L0,23.8l4.69,42,222.73,3.51,394-2.78,180.3,5.25,201.58-7.4L1313,71.78l26.14-25.15L1366,31V10.31Z"/><polygon class="cls-16" points="0 25.5 77.34 11.04 1366 11.04 1366 32.55 1337.26 47.94 1309.25 73.48 1000.52 65.56 799.64 73.48 619.92 67.85 227.08 70.84 5.02 67.08 0 25.5"/><path class="cls-1" d="M1363.45,13.6V31l-27.39,14.67-.28.15-.24.21L1308.29,70.9,1000.59,63h-.17L799.63,70.92,620,65.3h-.1l-392.81,3L7.29,64.56l-4.47-37,74.75-14H1363.45M1366,11H77.34L0,25.5,5,67.08l222.06,3.76,392.84-3,179.72,5.63,200.88-7.92,308.73,7.92,28-25.54L1366,32.55V11Z"/><polygon class="cls-17" points="0 27.2 76.44 11.78 1366 11.78 1366 34.11 1335.35 49.25 1305.47 75.18 997.72 66.73 797.53 75.18 618.4 69.18 226.73 72.37 5.36 68.36 0 27.2"/><path class="cls-1" d="M1363.48,14.3V32.54L1334.23,47l-.29.15-.25.21-29.13,25.29L997.79,64.21h-.18L797.52,72.66l-179-6h-.11L226.75,69.84l-219.17-4L2.81,29.21,76.69,14.3H1363.48m2.52-2.52H76.44L0,27.2,5.36,68.36l221.37,4L618.4,69.18l179.13,6,200.19-8.45,307.75,8.45,29.88-25.93L1366,34.11V11.78Z"/><polygon class="cls-18" points="0 28.9 75.54 12.52 1366 12.52 1366 35.67 1333.43 50.56 1301.69 76.89 994.92 67.91 795.43 76.89 616.89 70.51 226.39 73.89 5.69 69.64 0 28.9"/><path class="cls-1" d="M1363.5,15V34.07l-31.11,14.22-.3.13-.25.22-31,25.72L995,65.42h-.19l-199.39,9L617,68h-.11L226.4,71.4,7.87,67.18,2.79,30.85,75.81,15H1363.5m2.5-2.49H75.54L0,28.9,5.69,69.64l220.7,4.25,390.5-3.38,178.54,6.38,199.49-9,306.77,9,31.74-26.33L1366,35.67V12.52Z"/><polygon class="cls-19" points="0 30.6 74.64 13.25 1366 13.25 1366 37.23 1331.52 51.87 1297.9 78.59 992.11 69.08 793.32 78.59 615.37 71.84 226.05 75.42 6.03 70.91 0 30.6"/><path class="cls-1" d="M1363.53,15.72V35.6l-33,14-.31.13-.26.21-32.9,26.16L992.19,66.62H992l-198.69,9.5L615.46,69.38h-.11L226.06,73,8.16,68.49l-5.39-36L74.92,15.72H1363.53m2.47-2.47H74.64L0,30.6,6,70.91l220,4.51,389.32-3.58,178,6.75,198.79-9.5,305.79,9.5,33.61-26.73L1366,37.23v-24Z"/><polygon class="cls-20" points="0 32.3 73.74 13.99 1366 13.99 1366 38.79 1329.6 53.17 1294.12 80.29 989.31 70.26 791.21 80.29 613.86 73.17 225.7 76.95 6.36 72.19 0 32.3"/><path class="cls-1" d="M1363.56,16.42V37.13L1328.7,50.91l-.31.12-.27.21-34.79,26.59-303.94-10h-.2l-198,10L614,70.74h-.12L225.72,74.51,8.45,69.8,2.76,34.12,74,16.42H1363.56M1366,14H73.74L0,32.3,6.36,72.19,225.7,77l388.15-3.78,177.36,7.12,198.1-10,304.81,10,35.48-27.12L1366,38.79V14Z"/><polygon class="cls-21" points="0 34 72.84 14.72 1366 14.72 1366 40.35 1327.68 54.48 1290.34 82 986.51 71.44 789.11 82 612.34 74.5 225.36 78.48 6.7 73.47 0 34"/><path class="cls-1" d="M1363.59,17.13V38.67l-36.74,13.56-.32.11-.27.21-36.67,27L986.59,69h-.21L789.09,79.59l-176.65-7.5h-.13l-386.94,4-216.63-5-6-35.35L73.15,17.13H1363.59m2.41-2.4H72.84L0,34,6.7,73.47l218.66,5,387-4L789.11,82l197.4-10.56L1290.34,82l37.34-27.52L1366,40.35V14.73Z"/><polygon class="cls-22" points="0 35.7 71.94 15.46 1366 15.46 1366 41.91 1325.77 55.79 1286.56 83.7 983.71 72.61 787 83.7 610.82 75.83 225.01 80 7.03 74.74 0 35.7"/><path class="cls-1" d="M1363.62,17.84V40.21L1325,53.54l-.32.12-.28.2L1285.84,81.3l-302-11.06h-.22L787,81.32,610.93,73.45h-.13L225,77.63,9,72.42l-6.31-35L72.27,17.84H1363.62m2.38-2.38H71.94L0,35.7l7,39L225,80l385.81-4.17L787,83.7,983.71,72.61,1286.56,83.7l39.21-27.91L1366,41.91V15.46Z"/><polygon class="cls-23" points="0 37.4 71.04 16.2 1366 16.2 1366 43.47 1323.85 57.1 1282.77 85.41 980.9 73.79 784.89 85.41 609.3 77.16 224.67 81.53 7.37 76.02 0 37.4"/><path class="cls-1" d="M1363.65,18.54V41.76l-40.52,13.11-.33.1-.28.2L1282.08,83,981,71.44h-.23L784.88,83.06,609.42,74.81h-.14L224.69,79.19,9.32,73.72,2.7,39l68.68-20.5H1363.65M1366,16.2H71L0,37.4,7.37,76l217.3,5.51,384.64-4.38L784.89,85.4l196-11.61L1282.77,85.4l41.08-28.3L1366,43.47V16.2Z"/><polygon class="cls-24" points="0 39.1 70.14 16.93 1366 16.93 1366 45.03 1321.94 58.41 1278.99 87.11 978.1 74.96 782.79 87.11 607.79 78.48 224.33 83.06 7.7 77.3 0 39.1"/><path class="cls-1" d="M1363.68,19.25V43.31l-42.42,12.88-.33.1-.28.19-42.32,28.28L978.19,72.65H978L782.77,84.79,607.9,76.17h-.14L224.34,80.74,9.61,75,2.68,40.68,70.5,19.25H1363.68m2.32-2.32H70.14L0,39.1,7.7,77.3l216.63,5.76,383.46-4.58,175,8.63L978.1,75,1279,87.11l43-28.7L1366,45V16.93Z"/><polygon class="cls-25" points="0 40.8 69.24 17.67 1366 17.67 1366 46.59 1320.02 59.72 1275.21 88.81 975.3 76.14 780.68 88.81 606.27 79.81 223.98 84.59 8.04 78.58 0 40.8"/><path class="cls-1" d="M1363.71,20v24.9l-44.32,12.66-.33.09-.29.19-44.2,28.7L975.39,73.85h-.24L780.67,86.52l-174.28-9h-.15L224,82.3l-214.1-6-7.24-34L69.62,20H1363.71m2.29-2.29H69.24L0,40.8,8,78.58l215.94,6,382.29-4.78,174.41,9L975.3,76.14l299.91,12.67L1320,59.72l46-13.13V17.67Z"/><polygon class="cls-26" points="0 42.5 68.34 18.41 1366 18.41 1366 48.15 1318.1 61.02 1271.42 90.52 972.5 77.31 778.58 90.52 604.76 81.14 223.64 86.12 8.37 79.85 0 42.5"/><path class="cls-1" d="M1363.74,20.66V46.42l-46.22,12.43-.33.08-.29.19-46.08,29.11L972.6,75.06h-.26L778.56,88.25,604.88,78.89h-.15l-381.07,5L10.19,77.65,2.64,44l66.09-23.3h1295m2.26-2.25H68.34L0,42.5,8.37,79.85l215.27,6.27,381.12-5,173.82,9.38L972.5,77.31l298.92,13.21L1318.1,61,1366,48.15V18.41Z"/><polygon class="cls-27" points="0 44.2 67.44 19.14 1366 19.14 1366 49.71 1316.19 62.33 1267.64 92.22 969.69 78.49 776.47 92.22 603.24 82.47 223.29 87.64 8.71 81.13 0 44.2"/><path class="cls-1" d="M1363.77,21.37V48l-48.13,12.2-.33.09-.29.18-48,29.52L969.8,76.27h-.26L776.45,90,603.36,80.25h-.15L223.32,85.42,10.48,79,2.62,45.6,67.85,21.37H1363.77m2.23-2.23H67.45L0,44.2,8.71,81.13,223.3,87.64l379.94-5.17,173.23,9.75L969.69,78.49l298,13.73,48.55-29.89L1366,49.71V19.14Z"/><polygon class="cls-28" points="0 45.9 66.55 19.88 1366 19.88 1366 51.27 1314.27 63.64 1263.86 93.92 966.89 79.67 774.36 93.92 601.72 83.8 222.95 89.17 9.04 82.41 0 45.9"/><path class="cls-1" d="M1363.8,22.08V49.53l-50,12-.33.07-.29.18L1263.3,91.7,967,77.47h-.27L774.35,91.72,601.85,81.6h-.16L223,87,10.78,80.26l-8.18-33L67,22.08H1363.8m2.2-2.2H66.55L0,45.9,9,82.41,223,89.17,601.72,83.8,774.36,93.92,966.89,79.67l297,14.25,50.41-30.28L1366,51.27V19.88Z"/><polygon class="cls-29" points="0 47.6 65.65 20.61 1366 20.61 1366 52.83 1312.36 64.95 1260.07 95.63 964.09 80.84 772.26 95.63 600.21 85.13 222.61 90.7 9.38 83.68 0 47.6"/><path class="cls-1" d="M1363.83,22.78V51.09l-51.95,11.75-.33.07-.29.17-51.72,30.35L964.2,78.68h-.28L772.24,93.45,600.34,83h-.17L222.63,88.53l-211.56-7L2.57,48.88l63.5-26.1H1363.83m2.17-2.17H65.65L0,47.6,9.38,83.68l213.23,7,377.6-5.57,172,10.5L964.09,80.84l296,14.79L1312.36,65,1366,52.83V20.61Z"/><polygon class="cls-30" points="0 49.3 64.75 21.35 1366 21.35 1366 54.38 1310.44 66.26 1256.29 97.33 961.28 82.02 770.15 97.33 598.69 86.46 222.26 92.23 9.71 84.96 0 49.3"/><path class="cls-1" d="M1363.86,23.49V52.65L1310,64.17l-.32.07-.29.17-53.61,30.75L961.4,79.88h-.15l-.14,0-191,15.3L598.83,84.32h-.17L222.29,90.09,11.36,82.88,2.55,50.53l62.64-27H1363.86m2.14-2.14H64.75L0,49.3,9.71,85l212.55,7.27,376.43-5.77L770.15,97.33,961.29,82l295,15.31,54.15-31.07L1366,54.38v-33Z"/><polygon class="cls-31" points="0 51 63.85 22.09 1366 22.09 1366 55.94 1308.53 67.57 1252.51 99.03 958.48 83.19 768.04 99.03 597.17 87.78 221.92 93.75 10.05 86.24 0 51"/><path class="cls-1" d="M1363.89,24.2v30L1308.11,65.5l-.33.07-.29.16L1252,96.9,958.6,81.09h-.29L768,96.92,597.31,85.68h-.17l-375.2,6L11.66,84.19l-9.13-32,61.77-28H1363.89m2.11-2.11H63.85L0,51,10.05,86.24l211.87,7.51,375.25-6L768,99,958.48,83.19l294,15.84,56-31.46L1366,55.94V22.09Z"/><polygon class="cls-32" points="0 52.7 62.95 22.82 1366 22.82 1366 57.5 1306.61 68.88 1248.72 100.74 955.68 84.37 765.94 100.74 595.66 89.11 221.57 95.28 10.38 87.52 0 52.7"/><path class="cls-1" d="M1363.92,24.9V55.78l-57.7,11.06-.33.06-.28.16-57.36,31.57L955.8,82.29h-.15l-.15,0L765.92,98.65,595.8,87h-.18l-374,6.17L12,85.49,2.5,53.81,63.42,24.9h1300.5m2.08-2.08H63L0,52.7,10.38,87.52l211.2,7.76,374.08-6.17,170.28,11.63L955.68,84.37l293,16.37,57.89-31.86L1366,57.5V22.82Z"/><polygon class="cls-33" points="0 54.4 62.05 23.56 1366 23.56 1366 59.06 1304.69 70.19 1244.94 102.44 952.88 85.55 763.83 102.44 594.14 90.44 221.23 96.81 10.72 88.79 0 54.4"/><path class="cls-1" d="M1364,25.61V57.35l-59.62,10.82-.32.06-.29.15-59.24,32L953,83.5h-.31L763.81,100.39l-169.53-12h-.17L221.25,94.76l-209-8L2.48,55.46,62.53,25.61H1364m2-2.05H62.05L0,54.4,10.72,88.79l210.51,8,372.91-6.37,169.69,12,189-16.9,292.06,16.9,59.75-32.25L1366,59.06V23.56Z"/><polygon class="cls-34" points="0 56.1 61.15 24.3 1366 24.3 1366 60.62 1302.78 71.5 1241.16 104.15 950.08 86.72 761.73 104.15 592.62 91.77 220.89 98.34 11.05 90.07 0 56.1"/><path class="cls-1" d="M1364,26.32v32.6L1302.43,69.5l-.31.06-.29.15-61.12,32.39L950.2,84.7H950l-.15,0L761.71,102.12,592.77,89.76h-.18L220.91,96.32,12.54,88.11,2.45,57.1,61.64,26.32H1364m2-2H61.15L0,56.1l11.05,34,209.84,8.27,371.73-6.57,169.11,12.38L950.07,86.72l291.09,17.43,61.62-32.66L1366,60.62V24.3Z"/><polygon class="cls-35" points="0 57.8 60.25 25.03 1366 25.03 1366 62.18 1300.86 72.8 1237.38 105.85 947.27 87.9 759.62 105.85 591.11 93.1 220.54 99.86 11.39 91.35 0 57.8"/><path class="cls-1" d="M1364,27V60.49l-63.47,10.35-.31,0-.29.15-63,32.79L947.4,85.91h-.32L759.6,103.85,591.26,91.12h-.19L220.56,97.87,12.83,89.41,2.42,58.74,60.76,27H1364m2-2H60.25L0,57.8,11.39,91.35l209.15,8.52L591.11,93.1l168.51,12.75L947.27,87.9l290.11,17.95,63.48-33L1366,62.18V25Z"/><polygon class="cls-36" points="0 59.5 59.35 25.77 1366 25.77 1366 63.74 1298.95 74.11 1233.59 107.55 944.47 89.07 757.51 107.55 589.59 94.43 220.2 101.39 11.72 92.63 0 59.5"/><path class="cls-1" d="M1364,27.73V62.06l-65.39,10.11-.32,0-.28.15-64.87,33.19L944.59,87.12h-.31L757.49,105.59,589.74,92.47h-.19l-369.33,7L13.13,90.72,2.4,60.39,59.87,27.73H1364m2-2H59.35L0,59.5,11.72,92.62l208.48,8.77,369.39-7,167.92,13.12,187-18.48,289.12,18.48L1299,74.11l67-10.37v-38Z"/><polygon class="cls-37" points="0 61.2 58.45 26.5 1366 26.5 1366 65.3 1297.03 75.42 1229.81 109.26 941.67 90.25 755.41 109.26 588.07 95.76 219.86 102.92 12.06 93.9 0 61.2"/><path class="cls-1" d="M1364.07,28.44V63.63l-67.32,9.88-.31,0-.28.14-66.75,33.6-287.62-19h-.16l-.16,0-186.08,19L588.23,93.83H588L219.88,101,13.42,92l-11-30L59,28.44H1364.07M1366,26.5H58.45L0,61.2,12.06,93.9l207.8,9,368.21-7.16,167.34,13.5,186.26-19,288.14,19L1297,75.42l69-10.12V26.5Z"/><polygon class="cls-38" points="0 62.9 57.55 27.24 1366 27.24 1366 66.86 1295.11 76.73 1226.03 110.96 938.87 91.42 753.3 110.96 586.56 97.09 219.51 104.45 12.39 95.18 0 62.9"/><path class="cls-1" d="M1364.1,29.14V65.21l-69.25,9.64-.3,0-.28.14-68.63,34L939,89.53h-.32L753.28,109.05,586.72,95.19h-.2l-367,7.36L13.72,93.34,2.34,63.68,58.09,29.14h1306m1.9-1.9H57.55L0,62.9,12.39,95.18l207.12,9.27,367-7.36L753.3,111,938.86,91.42,1226,111l69.08-34.23L1366,66.86V27.24Z"/><polygon class="cls-39" points="0 64.6 56.65 27.98 1366 27.98 1366 68.42 1293.2 78.04 1222.24 112.67 936.06 92.6 751.19 112.67 585.04 98.42 219.17 105.98 12.73 96.46 0 64.6"/><path class="cls-1" d="M1364.13,29.85V66.78L1293,76.18l-.3,0-.27.14-70.51,34.4-285.68-20H936l-.17,0-184.69,20-166-14.23H585L219.19,104.1,14,94.64,2.31,65.33l54.9-35.48H1364.13M1366,28H56.65L0,64.6,12.73,96.46,219.17,106,585,98.41l166.15,14.25L936.06,92.6l286.18,20.06,71-34.62,72.8-9.62V28Z"/><polygon class="cls-40" points="0 66.3 55.76 28.71 1366 28.71 1366 69.98 1291.28 79.35 1218.46 114.37 933.26 93.77 749.09 114.37 583.52 99.74 218.82 107.5 13.06 97.73 0 66.3"/><path class="cls-1" d="M1364.16,30.56V68.35l-73.11,9.17-.3,0-.27.13L1218.1,112.5,933.39,91.94h-.34l-184,20.58L583.69,97.91h-.2l-364.64,7.76L14.31,96l-12-29,54-36.42H1364.16m1.84-1.85H55.75L0,66.3,13.06,97.73l205.76,9.77,364.7-7.76,165.57,14.63,184.17-20.6,285.2,20.6,72.82-35L1366,70V28.71Z"/><polygon class="cls-41" points="0 68 54.85 29.45 1366 29.45 1366 71.54 1289.37 80.66 1214.68 116.07 930.46 94.95 746.98 116.07 582.01 101.07 218.48 109.03 13.4 99.01 0 68"/><path class="cls-1" d="M1364.19,31.26V69.93l-75,8.93-.29,0-.27.13-74.26,35.21L930.59,93.14h-.17l-.17,0L747,114.25l-164.79-15H582l-363.47,8-203.89-10L2.25,68.63,55.43,31.26H1364.19m1.81-1.81H54.86L0,68,13.4,99l205.08,10,363.53-8,165,15L930.46,95l284.22,21.12,74.69-35.41L1366,71.54V29.45Z"/><polygon class="cls-42" points="0 69.7 53.96 30.19 1366 30.19 1366 73.1 1287.45 81.96 1210.89 117.78 927.65 96.13 744.88 117.78 580.49 102.4 218.14 110.56 13.73 100.29 0 69.7"/><path class="cls-1" d="M1364.22,32V71.51l-77,8.68-.29,0-.26.12L1210.56,116,927.79,94.35h-.17l-.18,0L744.85,116,580.66,100.63h-.21l-362.29,8.16L14.91,98.56,2.22,70.28,54.54,32H1364.22m1.78-1.78H54L0,69.7l13.73,30.59,204.41,10.27,362.35-8.16,164.39,15.38L927.65,96.13l283.24,21.65L1287.45,82,1366,73.1V30.19Z"/><polygon class="cls-43" points="0 71.4 53.06 30.92 1366 30.92 1366 74.66 1285.54 83.27 1207.11 119.48 924.85 97.3 742.77 119.48 578.98 103.73 217.79 112.09 14.07 101.56 0 71.4"/><path class="cls-1" d="M1364.25,32.68v40.4l-78.9,8.45-.29,0-.26.12-78,36L925,95.55h-.18l-.17,0L742.75,117.72,579.14,102h-.21l-361.11,8.35L15.21,99.87l-13-27.94L53.65,32.68h1310.6m1.75-1.76H53.06L0,71.4l14.07,30.17,203.72,10.52L579,103.73l163.8,15.75L924.85,97.3l282.26,22.18,78.42-36.21L1366,74.66V30.92Z"/><polygon class="cls-44" points="0 73.1 52.16 31.66 1366 31.66 1366 76.22 1283.62 84.58 1203.33 121.18 922.05 98.48 740.66 121.18 577.46 105.06 217.45 113.61 14.4 102.84 0 73.1"/><path class="cls-1" d="M1364.28,33.38V74.66l-80.84,8.21-.28,0-.26.11L1203,119.43,922.19,96.76H922l-.17,0-181.2,22.68-163-16.11h-.21l-359.95,8.55-202-10.71L2.15,73.59,52.76,33.38H1364.28m1.72-1.72H52.16L0,73.1l14.4,29.74,203,10.77,360-8.55,163.2,16.12,181.39-22.7,281.28,22.7,80.29-36.6L1366,76.22V31.66Z"/><polygon class="cls-45" points="0 74.8 51.26 32.4 1366 32.4 1366 77.78 1281.7 85.89 1199.55 122.89 919.25 99.65 738.56 122.89 575.94 106.39 217.1 115.14 14.74 104.12 0 74.8"/><path class="cls-1" d="M1364.31,34.09V76.24l-82.77,8-.28,0-.25.12-81.76,36.81L919.39,98l-.18,0L919,98l-180.5,23.21L576.11,104.7h-.21l-358.77,8.76-201.32-11L2.12,75.24,51.87,34.09H1364.31M1366,32.4H51.26L0,74.8l14.74,29.32,202.36,11,358.84-8.75,162.62,16.5L919.25,99.65l280.3,23.24,82.15-37,84.3-8.11V32.4Z"/><polygon class="cls-46" points="0 76.5 50.36 33.13 1366 33.13 1366 79.34 1279.79 87.2 1195.76 124.59 916.44 100.83 736.45 124.59 574.42 107.72 216.76 116.67 15.07 105.4 0 76.5"/><path class="cls-1" d="M1364.34,34.79v43l-84.7,7.72-.28,0-.25.11-83.63,37.22L916.58,99.17h-.17l-.18,0-179.8,23.74L574.6,106.06h-.22l-357.6,9L16.11,103.79,2.08,76.9,51,34.79H1364.34m1.66-1.66H50.36L0,76.5l15.07,28.9,201.69,11.27,357.67-9,162,16.87,180-23.76,279.32,23.76,84-37.39L1366,79.34V33.13Z"/><polygon class="cls-47" points="0 78.2 49.46 33.87 1366 33.87 1366 80.9 1277.87 88.51 1191.98 126.3 913.64 102 734.34 126.3 572.91 109.05 216.42 118.2 15.41 106.67 0 78.2"/><path class="cls-1" d="M1364.37,35.5V79.4l-86.64,7.48-.27,0-.25.11-85.51,37.62L913.78,100.38l-.18,0-.18,0-179.1,24.26L573.08,107.42h-.21l-356.43,9.15-200-11.46L2.05,78.55l48-43H1364.37m1.63-1.63H49.46L0,78.2l15.41,28.47,201,11.53L572.91,109l161.43,17.25L913.64,102,1192,126.29l85.89-37.78L1366,80.9v-47Z"/><polygon class="cls-48" points="0 79.9 48.56 34.6 1366 34.6 1366 82.45 1275.95 89.82 1188.2 128 910.84 103.18 732.24 128 571.39 110.37 216.07 119.72 15.74 107.95 0 79.9"/><path class="cls-1" d="M1364.4,36.21V81l-88.58,7.24-.26,0-.24.11-87.39,38L911,101.58h-.18l-.18,0L732.21,126.38l-160.64-17.6h-.22L216.1,118.12,16.71,106.4,2,80.21l47.17-44H1364.4m1.6-1.61H48.56L0,79.9,15.74,108l200.33,11.78,355.32-9.36L732.24,128l178.6-24.82L1188.2,128,1276,89.82l90-7.36V34.6Z"/><polygon class="cls-49" points="0 81.6 47.66 35.34 1366 35.34 1366 84.02 1274.04 91.13 1184.41 129.7 908.04 104.36 730.13 129.7 569.88 111.7 215.73 121.25 16.08 109.23 0 81.6"/><path class="cls-1" d="M1364.43,36.91V82.56l-90.51,7-.26,0-.24.11-89.26,38.42-276-25.31-.18,0-.19,0-177.7,25.32-160.06-18h-.22l-354.07,9.55L17,107.71,2,81.87l46.32-45H1364.43m1.57-1.57H47.66L0,81.6l16.08,27.63,199.65,12,354.15-9.55,160.25,18L908,104.36l276.37,25.34L1274,91.12,1366,84V35.34Z"/><polygon class="cls-50" points="0 83.3 46.76 36.08 1366 36.08 1366 85.57 1272.12 92.43 1180.63 131.41 905.23 105.53 728.02 131.41 568.36 113.03 215.38 122.78 16.41 110.51 0 83.3"/><path class="cls-1" d="M1364.46,37.62V84.14L1272,90.89l-.26,0-.23.1-91.14,38.82L905.38,104h-.19l-.18,0L728,129.85,568.54,111.5l-.11,0h-.11l-352.91,9.75L17.31,109,1.94,83.53,47.41,37.62H1364.46m1.54-1.54H46.76L0,83.3l16.41,27.21,199,12.27,353-9.75L728,131.41l177.2-25.88,275.4,25.88,91.49-39L1366,85.57V36.08Z"/><polygon class="cls-51" points="0 85 45.86 36.81 1366 36.81 1366 87.13 1270.21 93.74 1176.85 133.11 902.43 106.71 725.92 133.11 566.84 114.36 215.04 124.31 16.75 111.78 0 85"/><path class="cls-1" d="M1364.49,38.33V85.72l-94.39,6.51-.25,0-.23.1-93,39.22-274-26.37-.19,0-.18,0L725.89,131.58,567,112.86l-.11,0h-.11l-351.73,9.94L17.62,110.32,1.91,85.19l44.6-46.86h1318m1.51-1.52H45.86L0,85l16.75,26.78L215,124.31l351.8-10,159.08,18.75,176.51-26.4,274.42,26.4,93.36-39.37L1366,87.13V36.81Z"/><polygon class="cls-52" points="0 86.69 44.96 37.55 1366 37.55 1366 88.69 1268.29 95.05 1173.06 134.81 899.63 107.88 723.81 134.81 565.33 115.69 214.7 125.84 17.08 113.06 0 86.69"/><path class="cls-1" d="M1364.51,39V87.3l-96.31,6.27H1268l-.23.1-94.88,39.62L899.77,106.4h-.18l-.19,0-175.61,26.9L565.5,114.21h-.22L214.72,124.35,17.92,111.63l-16-24.78L45.62,39H1364.51m1.49-1.48H45L0,86.7l17.08,26.36L214.7,125.84l350.63-10.15,158.48,19.12,175.82-26.93,273.43,26.93,95.23-39.76L1366,88.69V37.55Z"/><polygon class="cls-53" points="0 88.39 44.06 38.28 1366 38.28 1366 90.25 1266.38 96.36 1169.28 136.52 896.83 109.06 721.71 136.52 563.81 117.02 214.35 127.36 17.42 114.34 0 88.39"/><path class="cls-1" d="M1364.54,39.74V88.88l-98.25,6H1266l-.22.09-96.76,40L897,107.61l-.18,0-.19,0L721.68,135.05,564,115.57h-.22L214.38,125.91l-196.15-13L1.83,88.51,44.72,39.74H1364.54m1.46-1.46H44.06L0,88.4l17.42,25.94,196.93,13L563.81,117l157.9,19.5,175.12-27.46,272.45,27.46,97.1-40.16L1366,90.25v-52Z"/><polygon class="cls-54" points="0 90.09 43.16 39.02 1366 39.02 1366 91.81 1264.46 97.67 1165.5 138.22 894.02 110.23 719.6 138.22 562.29 118.35 214.01 128.89 17.75 115.61 0 90.09"/><path class="cls-1" d="M1364.57,40.45v50l-100.19,5.77-.24,0-.22.09-98.63,40.42-271.12-28-.19,0-.18,0-174.22,28L562.47,116.93h-.22L214,127.46,18.53,114.24,1.8,90.18l42-49.73H1364.57M1366,39H43.16L0,90.1l17.75,25.51L214,128.89l348.28-10.54L719.6,138.22l174.42-28,271.48,28,99-40.55L1366,91.81V39Z"/><polygon class="cls-55" points="0 91.8 42.27 39.76 1366 39.76 1366 93.37 1262.55 98.98 1161.71 139.92 891.22 111.41 717.49 139.92 560.78 119.67 213.66 130.42 18.09 116.89 0 91.8"/><path class="cls-1" d="M1364.6,41.15v50.9l-102.13,5.53-.23,0-.22.08L1161.51,138.5,891.37,110l-.19,0-.19,0L717.47,138.51,561,118.29h-.23L213.69,129,18.84,115.54,1.76,91.85l41.17-50.7H1364.6m1.4-1.39H42.27L0,91.8l18.09,25.09,195.57,13.53,347.12-10.75,156.71,20.25,173.73-28.51,270.49,28.51L1262.54,99,1366,93.37V39.76Z"/><polygon class="cls-56" points="0 93.5 41.37 40.49 1366 40.49 1366 94.93 1260.63 100.28 1157.93 141.63 888.42 112.58 715.39 141.63 559.26 121 213.32 131.95 18.42 118.17 0 93.5"/><path class="cls-1" d="M1364.63,41.86V93.63l-104.07,5.29h-.23l-.21.09-102.38,41.21-269.18-29-.18,0-.19,0-172.83,29-155.92-20.6-.11,0h-.11L213.35,130.58,19.14,116.85,1.72,93.51,42,41.86h1322.6m1.37-1.37H41.37L0,93.49l18.42,24.68L213.32,132,559.26,121l156.13,20.63,173-29,269.51,29,102.7-41.34L1366,94.93V40.49Z"/><polygon class="cls-57" points="0 95.19 40.47 41.23 1366 41.23 1366 96.49 1258.71 101.59 1154.15 143.33 885.62 113.76 713.28 143.33 557.74 122.33 212.98 133.47 18.75 119.45 0 95.19"/><path class="cls-1" d="M1364.66,42.57V95.22l-106,5h-.22l-.21.08L1154,142l-268.2-29.54-.19,0-.18,0L713.26,142,557.92,121l-.11,0h-.11L213,132.14l-193.55-14-17.77-23L41.14,42.57H1364.66m1.34-1.34H40.47L0,95.19l18.76,24.26,194.22,14,344.76-11.14,155.54,21,172.34-29.57,268.53,29.57,104.56-41.74L1366,96.49V41.23Z"/><polygon class="cls-58" points="0 96.89 39.57 41.97 1366 41.97 1366 98.05 1256.8 102.9 1150.37 145.04 882.81 114.94 711.17 145.04 556.23 123.66 212.63 135 19.09 120.72 0 96.89"/><path class="cls-1" d="M1364.69,43.27V96.8l-108,4.8h-.22l-.2.08-106.13,42L883,113.64l-.19,0-.18,0L711.15,143.71,556.41,122.37l-.11,0h-.12L212.66,133.69,19.75,119.46,1.64,96.85l38.6-53.58H1364.69M1366,42H39.57L0,96.89l19.09,23.83L212.63,135l343.6-11.34L711.18,145l171.63-30.1L1150.37,145,1256.8,102.9,1366,98.05V42Z"/><polygon class="cls-59" points="0 98.59 38.67 42.7 1366 42.7 1366 99.61 1254.88 104.21 1146.58 146.74 880.01 116.11 709.07 146.74 554.71 124.99 212.29 136.53 19.43 122 0 98.59"/><path class="cls-1" d="M1364.72,44v54.4l-109.89,4.55h-.22l-.2.08-108,42.41L880.16,114.84l-.19,0-.18,0L709,145.45,554.89,123.72h-.22L212.32,135.25,20.06,120.77,1.6,98.52,39.34,44H1364.72M1366,42.7H38.67L0,98.59,19.43,122l192.86,14.53L554.71,125l154.36,21.75L880,116.11l266.57,30.63,108.3-42.53L1366,99.61V42.7Z"/><polygon class="cls-60" points="0 100.3 37.77 43.44 1366 43.44 1366 101.17 1252.96 105.52 1142.8 148.44 877.21 117.29 706.96 148.44 553.19 126.32 211.94 138.06 19.76 123.28 0 100.3"/><path class="cls-1" d="M1364.75,44.69V100l-111.83,4.3h-.21l-.2.08-109.87,42.81L877.35,116.05l-.18,0-.19,0-170,31.12-153.57-22.1h-.22L212,136.81,20.37,122.07,1.56,100.2,38.44,44.69H1364.75m1.25-1.25H37.77L0,100.29l19.76,23L212,138.06l341.24-11.74L707,148.44l170.25-31.15,265.59,31.15L1253,105.52l113-4.35V43.44Z"/><polygon class="cls-61" points="0 102 36.87 44.17 1366 44.17 1366 102.73 1251.05 106.83 1139.02 150.15 874.4 118.46 704.86 150.15 551.68 127.65 211.6 139.59 20.09 124.56 0 102"/><path class="cls-1" d="M1364.78,45.39v56.16L1251,105.61h-.21l-.19.07L1138.86,148.9,874.55,117.25l-.18,0-.19,0L704.83,148.91l-153-22.47h-.22l-340,11.94-190.95-15L1.52,101.87l36-56.48H1364.78m1.22-1.22H36.87L0,102l20.09,22.56,191.51,15,340.08-11.94,153.18,22.5,169.55-31.69L1139,150.15l112-43.32,115-4.1V44.17Z"/><polygon class="cls-62" points="0 103.69 35.97 44.91 1366 44.91 1366 104.29 1249.13 108.14 1135.23 151.85 871.6 119.64 702.75 151.85 550.16 128.98 211.26 141.11 20.43 125.83 0 103.69"/><path class="cls-1" d="M1364.81,46.1v57L1249.09,107h-.2l-.18.07-113.63,43.61L871.75,118.46l-.19,0-.18,0L702.73,150.65,550.34,127.8l-.11,0h-.11L211.28,139.92,21,124.68,1.48,103.55,36.64,46.1H1364.81m1.19-1.19H36L0,103.69l20.43,22.14,190.83,15.28L550.16,129l152.59,22.87L871.6,119.64l263.63,32.21,113.9-43.71L1366,104.29V44.91Z"/><polygon class="cls-63" points="0 105.39 35.07 45.65 1366 45.65 1366 105.85 1247.22 109.45 1131.45 153.55 868.8 120.81 700.64 153.55 548.64 130.31 210.91 142.64 20.77 127.11 0 105.39"/><path class="cls-1" d="M1364.84,46.81v57.91l-117.66,3.57H1247l-.18.07-115.5,44-262.37-32.7-.18,0-.18,0-168,32.7-151.8-23.22-.11,0h-.11L210.94,141.48,21.3,126,1.44,105.23,35.73,46.81H1364.84m1.16-1.16H35.07L0,105.39l20.76,21.72,190.15,15.53L548.64,130.3l152,23.25L868.8,120.82l262.65,32.73,115.77-44.1,118.78-3.6V45.65Z"/><polygon class="cls-64" points="0 107.09 34.17 46.38 1366 46.38 1366 107.41 1245.3 110.75 1127.67 155.26 866 121.99 698.54 155.26 547.13 131.63 210.57 144.17 21.1 128.39 0 107.09"/><path class="cls-1" d="M1364.87,47.51v58.8l-119.6,3.32h-.19l-.18.07-117.37,44.4L866.14,120.87l-.18,0-.18,0L698.51,154.11,547.3,130.52l-.11,0h-.1L210.59,143l-189-15.74L1.4,106.91l33.43-59.4h1330m1.13-1.13H34.17L0,107.09l21.1,21.3,189.47,15.78,336.56-12.54,151.41,23.63L866,122l261.67,33.27,117.63-44.51,120.7-3.34v-61Z"/><polygon class="cls-65" points="0 108.79 33.27 47.12 1366 47.12 1366 108.97 1243.39 112.06 1123.88 156.96 863.2 123.17 696.43 156.96 545.61 132.96 210.23 145.7 21.43 129.66 0 108.79"/><path class="cls-1" d="M1364.9,48.22v59.67L1243.36,111h-.19l-.17.06-119.25,44.81L863.34,122.08l-.18,0-.18,0L696.41,155.85l-150.63-24-.1,0h-.11L210.25,144.6l-188.33-16-20.56-20L33.93,48.22h1331m1.1-1.1H33.27L0,108.79l21.43,20.87,188.8,16L545.61,133l150.82,24L863.2,123.17,1123.88,157l119.51-44.9L1366,109V47.12Z"/><polygon class="cls-66" points="0 110.49 32.37 47.86 1366 47.86 1366 110.53 1241.47 113.37 1120.1 158.67 860.39 124.34 694.33 158.67 544.1 134.29 209.88 147.22 21.77 130.94 0 110.49"/><path class="cls-1" d="M1364.93,48.93v60.55l-123.48,2.82h-.18l-.17.06L1120,157.57,860.53,123.28l-.18,0-.17,0L694.3,157.58l-150-24.34-.11,0h-.11L209.91,146.15,22.23,129.91,1.32,110.27,33,48.93H1364.93m1.07-1.07H32.37L0,110.49l21.77,20.45,188.11,16.28,334.21-12.93,150.24,24.38,166.06-34.33,259.71,34.33,121.37-45.3L1366,110.53V47.86Z"/><polygon class="cls-67" points="0 112.19 31.47 48.59 1366 48.59 1366 112.08 1239.55 114.68 1116.32 160.37 857.59 125.52 692.22 160.37 542.58 135.62 209.54 148.75 22.1 132.22 0 112.19"/><path class="cls-1" d="M1365,49.63v61.44l-125.43,2.57h-.17l-.17.07-123,45.59L857.73,124.49l-.18,0-.17,0L692.2,159.31,542.75,134.59h-.21l-333,13.13-187-16.5L1.28,112,32.12,49.63H1365m1-1H31.47L0,112.19l22.1,20,187.44,16.53,333-13.13,149.64,24.75,165.37-34.85,258.73,34.85,123.23-45.69L1366,112.09V48.59Z"/><polygon class="cls-68" points="0 113.89 30.57 49.33 1366 49.33 1366 113.64 1237.64 115.99 1112.54 162.07 854.79 126.69 690.11 162.07 541.06 136.95 209.19 150.28 22.44 133.5 0 113.89"/><path class="cls-1" d="M1365,50.34v62.31L1237.62,115h-.17l-.16.06-124.87,46-257.5-35.35-.17,0-.17,0L690.09,161,541.23,136H541l-331.8,13.33L22.86,132.52,1.24,113.64l30-63.3H1365m1-1H30.58L0,113.89,22.44,133.5l186.75,16.78L541.06,137l149.05,25.12,164.68-35.38,257.74,35.38L1237.64,116,1366,113.64V49.33Z"/><polygon class="cls-69" points="0 115.59 29.68 50.06 1366 50.06 1366 115.2 1235.72 117.3 1108.75 163.78 851.99 127.87 688.01 163.78 539.54 138.28 208.85 151.81 22.77 134.77 0 115.59"/><path class="cls-1" d="M1365,51.05v63.19l-129.31,2.08h-.17l-.15.06-126.75,46.39L852.12,126.9l-.17,0-.17,0L688,162.78,539.71,137.31l-.1,0h-.1L208.87,150.83l-185.7-17-22-18.5L30.31,51.05H1365m1-1H29.68L0,115.59l22.77,19.18,186.08,17,330.7-13.53L688,163.78l164-35.91,256.77,35.91,127-46.48L1366,115.2V50.07Z"/><polygon class="cls-70" points="0 117.29 28.78 50.8 1366 50.8 1366 116.76 1233.81 118.61 1104.97 165.48 849.18 129.04 685.9 165.48 538.03 139.61 208.51 153.34 23.11 136.05 0 117.29"/><path class="cls-1" d="M1365.05,51.75v64.08l-131.26,1.83h-.16l-.15,0-128.61,46.8L849.32,128.1l-.18,0-.16,0-163.1,36.39L538.19,138.67l-.1,0H538L208.53,152.38l-185-17.25L1.16,117,29.4,51.75H1365.05m1-1H28.78L0,117.29l23.11,18.76,185.4,17.29L538,139.61,685.9,165.48,849.18,129,1105,165.48l128.84-46.87L1366,116.76v-66Z"/><polygon class="cls-71" points="0 118.99 27.88 51.54 1366 51.54 1366 118.32 1231.89 119.92 1101.18 167.18 846.38 130.22 683.79 167.18 536.51 140.94 208.16 154.86 23.44 137.33 0 118.99"/><path class="cls-1" d="M1365.08,52.46v64.95L1231.88,119h-.16l-.14,0-130.49,47.19L846.51,129.31l-.17,0-.16,0L683.77,166.25,536.67,140l-.1,0h-.1L208.19,153.94,23.8,136.44,1.12,118.7,28.49,52.46H1365.08m.92-.92H27.88L0,119l23.44,18.34,184.72,17.53,328.35-13.93,147.28,26.25,162.59-37,254.81,37,130.7-47.27L1366,118.32V51.54Z"/><polygon class="cls-72" points="0 120.69 26.98 52.27 1366 52.27 1366 119.88 1229.97 121.22 1097.4 168.89 843.58 131.4 681.69 168.89 535 142.26 207.82 156.39 23.78 138.6 0 120.69"/><path class="cls-1" d="M1365.11,53.16V119L1230,120.33h-.15l-.15,0L1097.31,168l-253.6-37.46-.17,0-.16,0L681.67,168,535.15,141.39l-.09,0H535L207.84,155.5,24.11,137.74l-23-17.35,26.5-67.23H1365.11m.89-.89H27L0,120.69,23.78,138.6l184,17.79L535,142.26l146.69,26.63L843.58,131.4l253.82,37.49L1230,121.22l136-1.34V52.27Z"/><polygon class="cls-73" points="0 122.39 26.08 53.01 1366 53.01 1366 121.44 1228.06 122.53 1093.62 170.59 840.77 132.57 679.58 170.59 533.48 143.59 207.47 157.92 24.11 139.88 0 122.39"/><path class="cls-1" d="M1365.14,53.87v66.72l-137.09,1.08h-.14l-.14,0-134.24,48-252.63-38-.16,0-.16,0-161,38-145.92-27-.1,0h-.1L207.5,157.06l-183.07-18L1,122.08,26.68,53.87H1365.14M1366,53H26.08L0,122.39l24.11,17.49,183.36,18,326-14.33,146.1,27,161.19-38,252.85,38,134.44-48.06L1366,121.44V53Z"/><polygon class="cls-74" points="0 124.09 25.18 53.75 1366 53.75 1366 123 1226.14 123.84 1089.84 172.29 837.97 133.75 677.48 172.29 531.96 144.92 207.13 159.45 24.45 141.16 0 124.09"/><path class="cls-1" d="M1365.17,54.58v67.59l-139,.84H1226l-.14,0-136.1,48.38L838.1,132.93l-.16,0-.16,0L677.45,171.45,532.12,144.1h-.19L207.15,158.61,24.75,140.35,1,123.78l24.77-69.2h1339.4m.83-.83H25.18L0,124.09l24.45,17.07,182.68,18.29L532,144.92,677.48,172.3,838,133.75l251.87,38.55,136.3-48.46L1366,123V53.75Z"/><polygon class="cls-75" points="0 125.79 24.28 54.48 1366 54.48 1366 124.56 1224.23 125.15 1086.05 174 835.17 134.92 675.37 174 530.45 146.25 206.79 160.97 24.78 142.44 0 125.79"/><path class="cls-1" d="M1365.2,55.28v68.48l-141,.59h-.13l-.13,0-138,48.79L835.29,134.13l-.16,0-.15,0-159.63,39L530.6,145.46l-.1,0h-.09l-323.6,14.72L25.06,141.66,1,125.47,24.85,55.28H1365.2m.8-.8H24.28L0,125.79l24.78,16.65,182,18.53,323.66-14.72L675.37,174l159.8-39.08L1086.05,174l138.18-48.85,141.77-.59V54.48Z"/><polygon class="cls-76" points="0 127.49 23.38 55.22 1366 55.22 1366 126.12 1222.31 126.46 1082.27 175.7 832.37 136.1 673.26 175.7 528.93 147.58 206.44 162.5 25.12 143.71 0 127.49"/><path class="cls-1" d="M1365.23,56v69.36l-142.92.34h-.13l-.12,0L1082.2,174.91,832.49,135.34l-.16,0-.15,0L673.24,174.91,529.08,146.82l-.09,0h-.1L206.46,161.73,25.38,143,.92,127.17,23.94,56H1365.23m.77-.77H23.38L0,127.49l25.12,16.22L206.44,162.5l322.49-14.92L673.26,175.7l159.11-39.6,249.9,39.6,140-49.24,143.69-.34V55.22Z"/><polygon class="cls-77" points="0 129.19 22.48 55.95 1366 55.95 1366 127.68 1220.4 127.77 1078.49 177.41 829.56 137.28 671.16 177.41 527.41 148.91 206.1 164.03 25.45 144.99 0 129.19"/><path class="cls-1" d="M1365.26,56.7v70.24L1220.4,127h-.13l-.12,0-141.73,49.57-248.74-40.1-.15,0-.15,0-158.24,40.1L527.56,148.18l-.09,0h-.09L206.12,163.28l-180.42-19L.88,128.86,23,56.7H1365.26M1366,56H22.48L0,129.19,25.45,145,206.1,164l321.31-15.12,143.75,28.5,158.4-40.14,248.93,40.14,141.91-49.64,145.6-.09V56Z"/><polygon class="cls-78" points="0 130.89 21.58 56.69 1366 56.69 1366 129.24 1218.48 129.07 1074.7 179.11 826.76 138.45 669.05 179.11 525.9 150.24 205.75 165.56 25.79 146.27 0 130.89"/><path class="cls-1" d="M1365.29,57.4v71.13l-146.81-.17h-.12l-.11,0-143.61,50L826.88,137.75l-.15,0-.15,0L669,178.38,526,149.54l-.09,0h-.09L205.78,164.84,26,145.58l-25.18-15L22.12,57.4H1365.29m.71-.71H21.58L0,130.89l25.79,15.38,180,19.29L525.9,150.24l143.15,28.87,157.71-40.66,247.94,40.66,143.78-50,147.52.16V56.69Z"/><polygon class="cls-79" points="0 132.59 20.68 57.43 1366 57.43 1366 130.8 1216.56 130.38 1070.92 180.81 823.96 139.63 666.94 180.81 524.38 151.56 205.41 167.09 26.12 147.54 0 132.59"/><path class="cls-1" d="M1365.32,58.11v72l-148.75-.41h-.12l-.11,0-145.48,50.37L824.07,139l-.14,0-.14,0L666.92,180.11,524.52,150.9l-.09,0h-.08L205.43,166.4,26.34,146.88.8,132.26,21.2,58.11H1365.32m.68-.68H20.68L0,132.59l26.12,14.95,179.29,19.54,319-15.52,142.56,29.25,157-41.18,247,41.18,145.64-50.43,149.44.42V57.43Z"/><polygon class="cls-80" points="0 134.29 19.78 58.16 1366 58.16 1366 132.36 1214.65 131.69 1067.14 182.52 821.16 140.8 664.84 182.52 522.86 152.89 205.07 168.61 26.46 148.82 0 134.29"/><path class="cls-1" d="M1365.35,58.82V131.7l-150.7-.66h-.11l-.1,0-147.36,50.78L821.27,140.16l-.14,0-.14,0L664.82,181.85,523,152.25h-.17L205.09,168,26.66,148.19.76,134,20.29,58.82H1365.35m.65-.66H19.78L0,134.29l26.46,14.53,178.61,19.79,317.79-15.72,142,29.63L821.16,140.8l246,41.72,147.51-50.83,151.35.67V58.16Z"/><polygon class="cls-81" points="0 135.99 18.89 58.9 1366 58.9 1366 133.92 1212.73 133 1063.36 184.22 818.35 141.98 662.73 184.22 521.35 154.22 204.72 170.14 26.79 150.1 0 135.99"/><path class="cls-1" d="M1365.38,59.52v73.77l-152.64-.91h-.11l-.1,0L1063.3,183.58,818.46,141.36l-.14,0-.13,0-155.48,42.2-141.23-30h-.16L204.74,169.51,27,149.49.72,135.67,19.37,59.52h1346m.62-.62H18.88L0,136,26.79,150.1l177.93,20,316.63-15.92,141.38,30L818.35,142l245,42.24L1212.73,133l153.27.92v-75Z"/><polygon class="cls-82" points="0 137.69 17.98 59.64 1366 59.64 1366 135.48 1210.82 134.31 1059.57 185.93 815.55 143.15 660.63 185.93 519.83 155.55 204.38 171.67 27.13 151.38 0 137.69"/><path class="cls-1" d="M1365.41,60.23v74.65l-154.59-1.16h-.1l-.1,0-151.1,51.56L815.65,142.57l-.13,0-.13,0L660.61,185.31,520,155l-.08,0h-.08L204.4,171.07,27.3,150.8.68,137.37,18.46,60.23h1347m.59-.59H18L0,137.69l27.13,13.69,177.25,20.29,315.45-16.12,140.8,30.38,154.92-42.78,244,42.78,151.25-51.62L1366,135.48V59.64Z"/><polygon class="cls-83" points="0 139.39 17.09 60.37 1366 60.37 1366 137.04 1208.9 135.62 1055.79 187.63 812.75 144.33 658.52 187.63 518.31 156.88 204.03 173.2 27.46 152.65 0 139.39"/><path class="cls-1" d="M1365.44,60.94v75.53l-156.53-1.42h-.1l-.09,0-153,52L812.85,143.77l-.13,0-.12,0L658.5,187.05,518.43,156.33l-.07,0h-.08L204.05,172.63,27.62,152.1l-27-13L17.54,60.94h1347.9m.56-.57H17.09L0,139.39l27.46,13.26L204,173.2l314.28-16.32,140.21,30.75,154.23-43.3,243,43.3,153.11-52L1366,137V60.37Z"/><polygon class="cls-84" points="0 141.09 16.19 61.11 1366 61.11 1366 138.6 1206.98 136.93 1052.01 189.33 809.95 145.5 656.41 189.33 516.8 158.21 203.69 174.72 27.8 153.93 0 141.09"/><path class="cls-1" d="M1365.47,61.64v76.42L1207,136.39h-.09l-.09,0L1052,188.78,810,145l-.12,0-.12,0L656.4,188.78,516.91,157.69l-.07,0h-.07L203.71,174.19,27.94,153.41.61,140.78l16-79.14H1365.47m.53-.53H16.19L0,141.09l27.8,12.84,175.89,20.79L516.8,158.21l139.61,31.12L810,145.5,1052,189.33l155-52.4,159,1.67V61.11Z"/><polygon class="cls-85" points="0 142.79 15.29 61.84 1366 61.84 1366 140.16 1205.07 138.24 1048.22 191.04 807.14 146.68 654.31 191.04 515.28 159.54 203.35 176.25 28.13 155.21 0 142.79"/><path class="cls-1" d="M1365.49,62.35v77.29l-160.41-1.91H1205l-.08,0-156.72,52.76-241-44.34-.11,0-.12,0L654.29,190.52,515.39,159h-.14L203.36,175.74l-175.09-21L.57,142.49,15.71,62.35H1365.49m.51-.51H15.29L0,142.79l28.13,12.42,175.22,21,311.93-16.71,139,31.5,152.83-44.36L1048.22,191l156.85-52.8L1366,140.16V61.84Z"/><polygon class="cls-86" points="0 144.49 14.39 62.58 1366 62.58 1366 141.72 1203.15 139.54 1044.44 192.74 804.34 147.86 652.2 192.74 513.76 160.87 203 177.78 28.47 156.49 0 144.49"/><path class="cls-1" d="M1365.52,63.06v78.17l-162.36-2.16h-.08l-.08,0-158.59,53.16-240-44.86-.11,0-.11,0-152,44.85L513.87,160.4h-.13L203,177.3,28.59,156,.53,144.2,14.79,63.06H1365.52m.48-.48H14.39L0,144.49l28.47,12L203,177.78l310.76-16.91L652.2,192.74l152.14-44.88,240.1,44.88,158.71-53.2L1366,141.72V62.58Z"/><polygon class="cls-87" points="0 146.19 13.49 63.32 1366 63.32 1366 143.28 1201.24 140.85 1040.66 194.44 801.54 149.03 650.09 194.44 512.25 162.19 202.66 179.31 28.8 157.76 0 146.19"/><path class="cls-1" d="M1365.55,63.76v79.06l-164.31-2.41h-.07l-.07,0L1040.63,194l-239-45.39-.11,0-.1,0L650.08,194,512.35,161.76h-.13L202.67,178.86,28.92,157.33.5,145.91,13.87,63.76H1365.55m.45-.44H13.49L0,146.19l28.8,11.57,173.86,21.55,309.59-17.12,137.84,32.25L801.54,149l239.12,45.41,160.58-53.59L1366,143.27v-80Z"/><polygon class="cls-88" points="0 147.89 12.59 64.05 1366 64.05 1366 144.83 1199.32 142.16 1036.87 196.15 798.74 150.21 647.99 196.15 510.73 163.52 202.31 180.83 29.14 159.04 0 147.89"/><path class="cls-1" d="M1365.58,64.47v79.94l-166.25-2.66h-.07l-.07,0-162.34,53.95-238-45.92-.1,0-.1,0L648,195.72l-137.14-32.6-.06,0h-.06L202.33,180.42,29.24,158.63l-28.78-11L13,64.47H1365.58m.42-.42H12.59L0,147.89,29.14,159l173.18,21.79,308.41-17.31L648,196.15l150.75-45.94,238.13,45.94,162.45-54L1366,144.83V64.05Z"/><polygon class="cls-89" points="0 149.59 11.69 64.79 1366 64.79 1366 146.39 1197.41 143.47 1033.09 197.85 795.93 151.38 645.88 197.85 509.21 164.85 201.97 182.36 29.47 160.32 0 149.59"/><path class="cls-1" d="M1365.61,65.18V146l-168.2-2.92h-.06l-.07,0-164.21,54.35L796,151h-.1l-.09,0-150,46.44-136.56-33-.06,0h-.06L202,182l-172.42-22L.43,149.34,12,65.18H1365.61m.39-.39H11.69L0,149.59l29.47,10.73,172.5,22,307.24-17.51,136.67,33,150-46.47,237.16,46.47,164.32-54.38L1366,146.39V64.79Z"/><polygon class="cls-90" points="0 151.29 10.79 65.53 1366 65.53 1366 147.95 1195.49 144.78 1029.31 199.56 793.13 152.56 643.77 199.56 507.7 166.18 201.63 183.89 29.81 161.59 0 151.29"/><path class="cls-1" d="M1365.64,65.88v81.71l-170.14-3.17h-.06l-.06,0-166.1,54.75-236.08-47-.09,0-.09,0-149.26,47-136-33.36h-.1l-306,17.71L29.89,161.24.39,151.05,11.11,65.88H1365.64m.36-.35H10.79L0,151.29l29.81,10.3,171.82,22.3L507.7,166.18l136.08,33.38,149.35-47,236.18,47,166.18-54.78L1366,148V65.53Z"/><polygon class="cls-91" points="0 152.99 9.89 66.26 1366 66.26 1366 149.51 1193.57 146.09 1025.52 201.26 790.33 153.73 641.67 201.26 506.18 167.51 201.28 185.42 30.14 162.87 0 152.99"/><path class="cls-1" d="M1365.67,66.59v82.59l-172.09-3.42h0l-.06,0-168,55.14L790.39,153.41h-.08l-.08,0-148.57,47.5-135.4-33.73h-.1L201.3,185.09,30.22,162.55.35,152.76l9.83-86.17H1365.67m.33-.33H9.89L0,153l30.14,9.88,171.14,22.55,304.9-17.91,135.49,33.75,148.66-47.53,235.19,47.53,168-55.17L1366,149.51V66.26Z"/><polygon class="cls-92" points="0 154.69 8.99 67 1366 67 1366 151.07 1191.66 147.4 1021.74 202.96 787.53 154.91 639.56 202.96 504.67 168.84 200.94 186.94 30.48 164.15 0 154.69"/><path class="cls-1" d="M1365.7,67.3v83.47l-174-3.67h-.09l-169.85,55.55-234.13-48-.08,0-.08,0-147.88,48-134.81-34.1h-.09L201,186.65,30.57,163.86.32,154.48,9.26,67.3H1365.7m.3-.3H9L0,154.69l30.48,9.46,170.46,22.79,303.73-18.1L639.56,203l148-48.05L1021.74,203l169.92-55.56L1366,151.07V67Z"/><polygon class="cls-93" points="0 156.39 8.09 67.73 1366 67.73 1366 152.63 1189.74 148.71 1017.96 204.67 784.72 156.09 637.46 204.67 503.15 170.17 200.59 188.47 30.81 165.43 0 156.39"/><path class="cls-1" d="M1365.73,68v84.36l-176-3.92h-.09l-171.72,55.94L784.78,155.82h-.07l-.07,0L637.45,204.39,503.22,169.91h-.09L200.61,188.2l-169.72-23-30.6-9L8.34,68H1365.73m.27-.27H8.09L0,156.39l30.81,9,169.79,23,302.55-18.3,134.31,34.5,147.26-48.58L1018,204.67l171.78-56L1366,152.63V67.73Z"/><polygon class="cls-94" points="0 158.09 7.19 68.47 1366 68.47 1366 154.19 1187.83 150.01 1014.17 206.37 781.92 157.26 635.35 206.37 501.63 171.5 200.25 190 31.15 166.7 0 158.09"/><path class="cls-1" d="M1365.76,68.71V154l-177.93-4.17h-.08l-173.59,56.33L782,157h-.06l-.06,0L635.34,206.12,501.69,171.27h-.07L200.28,189.77,31.21,166.47l-31-8.56,7.16-89.2H1365.76m.24-.24H7.19L0,158.09l31.15,8.61L200.25,190l301.38-18.5,133.72,34.87,146.57-49.11,232.25,49.11L1187.83,150,1366,154.19V68.47Z"/><polygon class="cls-95" points="0 159.79 6.29 69.21 1366 69.21 1366 155.75 1185.91 151.32 1010.39 208.07 779.12 158.44 633.24 208.07 500.12 172.82 199.91 191.53 31.48 167.98 0 159.79"/><path class="cls-1" d="M1365.79,69.42v86.12l-179.87-4.43h-.07l-175.47,56.74L779.16,158.23h0l-.06,0L633.24,207.86,500.17,172.62h-.07l-300.16,18.7L31.53,167.78.22,159.63,6.49,69.42h1359.3m.21-.21H6.29L0,159.79,31.48,168l168.43,23.55,300.21-18.71,133.12,35.25,145.88-49.63,231.27,49.63,175.52-56.75L1366,155.75V69.21Z"/><polygon class="cls-96" points="0 161.49 5.4 69.94 1366 69.94 1366 157.31 1183.99 152.63 1006.61 209.78 776.32 159.61 631.14 209.78 498.6 174.15 199.56 193.06 31.82 169.26 0 161.49"/><path class="cls-1" d="M1365.82,70.12v87L1184,152.45h-.06L1006.6,209.59,776.35,159.44h-.09L631.13,209.59,498.65,174h-.06l-299,18.9L31.86,169.08.19,161.35,5.56,70.12H1365.82m.18-.18H5.4L0,161.49l31.82,7.77,167.74,23.8,299-18.91,132.54,35.63,145.18-50.17,230.29,50.17L1184,152.63l182,4.68V69.94Z"/><polygon class="cls-97" points="0 163.19 4.5 70.68 1366 70.68 1366 158.87 1182.08 153.94 1002.83 211.48 773.51 160.79 629.03 211.48 497.08 175.48 199.22 194.58 32.15 170.53 0 163.19"/><path class="cls-1" d="M1365.85,70.83v87.89l-183.77-4.93h0l-179.21,57.53L773.54,160.64h0l0,0L629,211.33l-131.91-36h-.05L199.24,194.44,32.18,170.39l-32-7.32L4.64,70.83H1365.85m.15-.15H4.5L0,163.19l32.15,7.34,167.07,24.05,297.86-19.1,132,36,144.48-50.69,229.32,50.69,179.25-57.54L1366,158.87V70.68Z"/><polygon class="cls-98" points="0 164.89 3.6 71.42 1366 71.42 1366 160.43 1180.16 155.25 999.04 213.19 770.71 161.96 626.92 213.19 495.57 176.81 198.88 196.11 32.49 171.81 0 164.89"/><path class="cls-1" d="M1365.88,71.53v88.78l-185.71-5.18h0L999,213.06l-228.3-51.21h-.07L626.92,213.06,495.6,176.7h0L198.89,196,32.51,171.7.12,164.8,3.71,71.53H1365.88m.12-.11H3.6L0,164.89l32.49,6.92,166.39,24.3,296.69-19.3,131.35,36.38L770.71,162,999,213.19l181.12-57.94L1366,160.43v-89Z"/><polygon class="cls-99" points="0 166.59 2.7 72.15 1366 72.15 1366 161.99 1178.25 156.56 995.26 214.89 767.91 163.14 624.82 214.89 494.05 178.14 198.53 197.64 32.82 173.09 0 166.59"/><path class="cls-1" d="M1365.91,72.24V161.9l-187.66-5.43h0l-183,58.33L767.93,163.05h0L624.82,214.8,494.07,178.05h0l-295.5,19.5L32.84,173,.09,166.52,2.78,72.24H1365.91m.09-.09H2.7L0,166.59l32.82,6.5,165.71,24.55,295.52-19.5,130.77,36.75,143.09-51.75,227.35,51.75,183-58.33L1366,162V72.15Z"/><polygon class="cls-100" points="0 168.29 1.8 72.89 1366 72.89 1366 163.55 1176.33 157.87 991.48 216.59 765.11 164.31 622.71 216.59 492.53 179.47 198.19 199.17 33.16 174.37 0 168.29"/><path class="cls-1" d="M1365.94,73v90.54l-189.61-5.68h0L991.47,216.53,765.12,164.26h0L622.71,216.53,492.55,179.41h0L198.2,199.11l-165-24.8L.06,168.24,1.86,73H1365.94m.06-.06H1.8L0,168.29l33.16,6.08,165,24.8,294.34-19.7,130.18,37.12,142.4-52.27,226.37,52.27,184.85-58.72L1366,163.55V72.89Z"/><polygon class="cls-101" points="0 169.99 0.9 73.63 1366 73.63 1366 165.11 1174.42 159.17 987.69 218.3 762.3 165.49 620.61 218.3 491.02 180.8 197.84 200.69 33.49 175.64 0 169.99"/><path class="cls-1" d="M1366,73.65h0v91.43l-191.55-5.94h0L987.69,218.27,762.31,165.46h0l-141.68,52.8L491,180.77h0l-293.16,19.9L33.5,175.61,0,170,.9,73.65H1366m0,0H.9L0,170l33.49,5.65,164.35,25.05L491,180.8l129.59,37.5L762.3,165.49,987.69,218.3l186.73-59.13L1366,165.11V73.62Z"/><polygon class="cls-102" points="0 171.69 197.5 202.22 489.5 182.13 618.5 220 759.5 166.67 983.91 220 1172.5 160.48 1366 166.67 1366 74.36 0 74.36 0 171.69"/></svg>